<?xml version="1.0" standalone="no"?>
<!DOCTYPE svg PUBLIC "-//W3C//DTD SVG 20010904//EN"
 "http://www.w3.org/TR/2001/REC-SVG-20010904/DTD/svg10.dtd">
<svg version="1.0" xmlns="http://www.w3.org/2000/svg"
 width="361.000000pt" height="361.000000pt" viewBox="0 0 361.000000 361.000000"
 preserveAspectRatio="xMidYMid meet">
<metadata>
Created by potrace 1.14, written by Peter Selinger 2001-2017
</metadata>
<g transform="translate(0.000000,361.000000) scale(0.100000,-0.100000)"
fill="#000000" stroke="none">
<path d="M1229 3606 c-2 -2 -20 -7 -39 -10 -154 -26 -307 -118 -420 -253 -53
-62 -101 -155 -132 -253 -19 -62 -23 -97 -23 -195 1 -135 16 -209 67 -310 l31
-64 -62 -67 c-228 -249 -224 -640 9 -874 85 -85 99 -96 183 -136 101 -48 199
-67 313 -62 l94 5 20 -32 c43 -69 144 -139 240 -165 54 -15 172 -15 200 0 11
6 20 8 20 4 0 -3 25 8 55 25 30 17 55 29 55 26 0 -6 -166 -685 -179 -735 -29
-105 -89 -355 -90 -377 -1 -10 -42 -13 -170 -13 -93 0 -176 -3 -185 -6 -18 -7
-23 -89 -6 -99 14 -8 1089 -9 1098 -1 10 10 9 80 -1 94 -7 9 -62 12 -213 12
l-204 0 5 23 c8 35 93 421 99 448 2 13 21 96 40 184 20 88 38 169 40 180 3 11
13 58 25 105 11 47 22 97 25 110 2 14 9 45 15 70 5 25 12 57 15 73 12 67 12
67 84 68 113 1 193 17 307 61 270 105 470 330 546 613 29 108 32 390 4 435 -2
4 -6 18 -9 32 -2 13 -17 56 -32 94 -113 282 -361 488 -664 549 -82 17 -261 16
-360 -1 -32 -5 -37 -3 -50 23 -63 121 -133 209 -226 280 -57 45 -168 98 -244
118 -58 16 -270 31 -281 21z m557 -2116 c58 -34 57 -32 33 -97 -4 -11 -22 -35
-39 -53 -100 -102 -277 -92 -391 22 l-51 51 58 29 c78 40 131 78 178 126 l38
40 60 -43 c32 -24 84 -58 114 -75z"/>
</g>
</svg>
